<?xml version="1.0" encoding="UTF-8"?>
<svg xmlns="http://www.w3.org/2000/svg" xmlns:xlink="http://www.w3.org/1999/xlink" version="1.1" viewBox="0 0 1373 268">
  <!-- Generator: Adobe Illustrator 29.6.1, SVG Export Plug-In . SVG Version: 2.1.1 Build 9)  -->
  <defs>
    <style>
      .st0 {
        fill: none;
      }

      .st1 {
        isolation: isolate;
      }

      .st2 {
        mix-blend-mode: color;
      }

      .st3 {
        fill: #fff4e9;
      }

      .st4 {
        clip-path: url(#clippath);
      }
    </style>
    <clipPath id="clippath">
      <rect class="st0" width="1373" height="268"/>
    </clipPath>
  </defs>
  <g class="st1">
    <g id="Layer_1">
      <g class="st4">
        <g>
          <g class="st2">
            <path class="st3" d="M30.9,242.6l74.1-94.1,13.7,16.1-71.7,89.4-16.1-11.3Z"/>
          </g>
          <g class="st2">
            <path class="st3" d="M126.5,128.5l49-60.9v30.6l-36.4,45.5-12.7-15.2Z"/>
          </g>
          <path class="st3" d="M19.5,3.5l151.5,62-14,17L49.5,39,19.5,3.5Z"/>
          <path class="st3" d="M11.5,1.1l163.2,191.5v29.5S11,31.1,11,31.1l.4-30Z"/>
          <path class="st3" d="M94.7,203h56.7s17.7,20,17.7,20h-91s16.7-20,16.7-20Z"/>
          <path class="st3" d="M3,203h53l-15.9,20H3v-20Z"/>
          <path class="st3" d="M317.3,152.1l30.7-83.6h24.5l-55.9,149.1h-26.8l-56.8-149.1h25l31.1,83.6c5.4,15.3,10.1,29.6,14.1,43.1,2.2-7.3,6.9-21.7,14.1-43.1Z"/>
          <path class="st3" d="M404.8,217.6h-22v-115.4h22v115.4Z"/>
          <path class="st3" d="M471.4,220.5c-31.5,0-48.1-13-49.7-38.9h22c.9,7.9,3.4,13.5,7.7,16.7,4.3,3.2,11,4.8,20.2,4.8,16.7,0,25.1-5.3,25.1-15.8s-1.8-8.1-5.3-10.6-9.8-4.5-18.9-6.2l-11.7-2.2c-24.1-4.4-36.1-15.7-36.1-33.9s3.9-18.1,11.7-24c7.8-6,18.5-9,32.1-9,31.2,0,47.2,12.7,48,38.1h-21.3c-.4-7.6-2.8-13-7-16.1-4.3-3.2-10.8-4.8-19.6-4.8s-12.5,1.3-16.3,4c-3.8,2.6-5.7,6.4-5.7,11.2s1.7,7.8,5.1,10.3c3.4,2.3,8.7,4.3,16.1,5.7l11.9,2c13.9,2.6,24,6.6,30.1,11.9,6.2,5.3,9.2,12.6,9.2,22s-4.2,19.6-12.5,25.7c-8.4,6-20,9-35,9Z"/>
          <path class="st3" d="M557.3,219.1h-22v-115h22v115Z"/>
          <path class="st3" d="M640.9,101.5c15.8,0,28.5,5.4,37.8,16.1,9.4,10.7,14.1,25.2,14.1,43.3s-4.7,32.4-14.1,43.1c-9.5,10.9-22.1,16.3-37.8,16.3s-29.3-6.6-37.8-19.8l.4,18.7h-21.6V68h22v52c8.5-12.3,20.8-18.5,37-18.5ZM612.5,190.6c5.9,7.2,13.9,10.8,24.2,10.8s18.4-3.7,24.4-11c5.9-7.2,8.8-17.3,8.8-30.4s-2.9-22.4-8.8-29.3c-5.9-6.9-14-10.3-24.4-10.3s-18.2,3.5-24.2,10.6c-6,7.3-9,17.3-9,29.9s3,22.5,9,29.7Z"/>
          <path class="st3" d="M734.1,219.1h-22V68h22v151.1Z"/>
          <path class="st3" d="M861.3,161.8v6.4h-85.6c1,11.1,4.3,19.6,9.9,25.3,5.6,5.6,13.1,8.4,22.7,8.4,14.4,0,23.8-6.3,28.2-18.9h22.2c-3.1,11.6-9.1,20.8-18,27.5-8.8,6.6-19.7,9.9-32.8,9.9s-29.4-5.4-39.4-16.3c-10-10.9-15-25.2-15-43.1s5-32.3,15-43.1c10-10.9,23-16.3,38.9-16.3s29.9,5.6,39.6,16.9c9.5,11.3,14.3,25.7,14.3,43.3ZM807.4,120c-8.7,0-15.8,2.6-21.3,7.9-5.4,5.3-8.8,12.9-10.1,22.9h62.7c-1-9.2-4.3-16.6-9.9-22.2-5.4-5.7-12.5-8.6-21.3-8.6Z"/>
          <path class="st3" d="M950.1,68v130.6h76.8v21.6h-100.3V68h23.5Z"/>
          <path class="st3" d="M1065.2,220.3h-22v-116.2h22v116.2Z"/>
          <path class="st3" d="M1171.1,120.2v-16.1h21.1v109.3c0,15.5-4.7,27.7-14.1,36.5-9.4,8.9-22.7,13.4-40,13.4s-26.6-3.4-35.4-10.1c-8.7-6.7-13.6-16-14.7-27.7h22c1.8,13.3,11.2,20,28.4,20s31.9-10.6,31.9-31.7v-12.5c-8.7,11.7-20.8,17.6-36.5,17.6s-28.5-5.4-37.8-16.1c-9.5-10.9-14.3-25.1-14.3-42.7s4.8-31.8,14.3-42.7c9.4-10.7,21.9-16.1,37.6-16.1s29.1,6.2,37.6,18.7ZM1137.6,200c10.3,0,18.3-3.5,24.2-10.6,6-7.2,9-16.9,9-29.3s-3-22-9-29c-5.9-7.2-13.9-10.8-24.2-10.8s-18.2,3.6-24.2,10.8c-6,7.2-9,16.9-9,29s3,22.1,9,29.3c6,7,14.1,10.6,24.2,10.6Z"/>
          <path class="st3" d="M1266.8,101.5c12.5,0,22.2,3.5,29.3,10.6,7,6.9,10.6,16.7,10.6,29.5v78.8h-22v-75.7c0-15.8-8-23.8-24-23.8s-13.9,2.8-19.8,8.4c-5.9,5.7-8.8,13.9-8.8,24.4v66.7h-22V68h22v51.7c8.7-12.2,20.2-18.3,34.8-18.3Z"/>
          <path class="st3" d="M1369.2,101.5v20.7h-22.9v68.2c0,3.4,1,5.9,2.9,7.5,2.1,1.5,5.4,2.2,10.1,2.2h9.9v20.2c-4.8.4-10,0-14.1,0-10.7,0-17.9-4-23-8.1-5.1-4.1-7.7-10.7-7.7-19.8v-70.2l-12.8-20.7h12.8v-29.9h22v29.9h22.9Z"/>
          <circle class="st3" cx="393.8" cy="79" r="11"/>
          <circle class="st3" cx="546.3" cy="79" r="11"/>
          <circle class="st3" cx="1054.2" cy="79" r="11"/>
        </g>
      </g>
    </g>
  </g>
</svg>